# This file uses centimeters as units for non-parametric coordinates.

mtllib LowPolyMissile.mtl
g default
v -1.001778 1.531380 0.382630
v -1.001778 1.495382 0.311980
v -1.001778 1.439314 0.255912
v -1.001778 1.368664 0.219914
v -1.001778 1.290348 0.207510
v -1.001778 1.212032 0.219914
v -1.001778 1.141382 0.255912
v -1.001778 1.085315 0.311980
v -1.001778 1.049317 0.382630
v -1.001778 1.036913 0.460946
v -1.001778 1.049317 0.539262
v -1.001778 1.085315 0.609911
v -1.001778 1.141382 0.665979
v -1.001778 1.212032 0.701977
v -1.001778 1.290348 0.714381
v -1.001778 1.368664 0.701977
v -1.001778 1.439314 0.665979
v -1.001778 1.495382 0.609911
v -1.001778 1.531380 0.539261
v -1.001778 1.543784 0.460946
v -4.365900 1.531380 0.382630
v -4.365900 1.495382 0.311980
v -4.365900 1.439314 0.255912
v -4.365900 1.368664 0.219914
v -4.365900 1.290348 0.207510
v -4.365900 1.212032 0.219914
v -4.365900 1.141382 0.255912
v -4.365900 1.085315 0.311980
v -4.365900 1.049317 0.382630
v -4.365900 1.036913 0.460946
v -4.365900 1.049317 0.539262
v -4.365900 1.085315 0.609911
v -4.365900 1.141382 0.665979
v -4.365900 1.212032 0.701977
v -4.365900 1.290348 0.714381
v -4.365900 1.368664 0.701977
v -4.365900 1.439314 0.665979
v -4.365900 1.495382 0.609911
v -4.365900 1.531380 0.539261
v -4.365900 1.543784 0.460946
v -4.365900 1.290348 0.460946
v -0.411322 1.388869 0.428934
v -0.411322 1.374155 0.400057
v -0.411322 1.351238 0.377139
v -0.411322 1.322359 0.362425
v -0.411322 1.290348 0.357355
v -0.411322 1.258337 0.362425
v -0.411322 1.229459 0.377139
v -0.411322 1.206541 0.400057
v -0.411322 1.191828 0.428934
v -0.411322 1.186758 0.460946
v -0.411322 1.191828 0.492957
v -0.411322 1.206542 0.521835
v -0.411322 1.229459 0.544752
v -0.411322 1.258337 0.559466
v -0.411322 1.290348 0.564536
v -0.411322 1.322359 0.559466
v -0.411322 1.351238 0.544752
v -0.411322 1.374155 0.521835
v -0.411322 1.388869 0.492957
v -0.411322 1.393939 0.460946
v -0.247119 1.334946 0.446455
v -0.247119 1.328285 0.433383
v -0.247119 1.290348 0.460946
v -0.247119 1.317911 0.423009
v -0.247119 1.304839 0.416348
v -0.247119 1.290348 0.414053
v -0.247119 1.275858 0.416348
v -0.247119 1.262786 0.423009
v -0.247119 1.252411 0.433383
v -0.247119 1.245751 0.446455
v -0.247119 1.243456 0.460945
v -0.247119 1.245751 0.475436
v -0.247119 1.252411 0.488508
v -0.247119 1.262786 0.498883
v -0.247119 1.275858 0.505543
v -0.247119 1.290348 0.507838
v -0.247119 1.304839 0.505543
v -0.247119 1.317912 0.498882
v -0.247119 1.328285 0.488508
v -0.247119 1.334946 0.475436
v -0.247119 1.337241 0.460946
v -3.927646 1.439314 0.665979
v -3.927646 1.368664 0.701977
v -3.927646 1.290348 0.714381
v -3.927646 1.212032 0.701977
v -3.927646 1.141382 0.665979
v -3.927646 1.085315 0.609911
v -3.927646 1.049317 0.539262
v -3.927646 1.036913 0.460946
v -3.927646 1.049317 0.382630
v -3.927646 1.085315 0.311980
v -3.927646 1.141382 0.255912
v -3.927646 1.212032 0.219914
v -3.927646 1.290348 0.207510
v -3.927646 1.368664 0.219914
v -3.927646 1.439314 0.255912
v -3.927646 1.495382 0.311980
v -3.927646 1.531380 0.382630
v -3.927646 1.543784 0.460946
v -3.927646 1.531380 0.539261
v -3.927646 1.495382 0.609911
v -3.405902 1.290348 0.207510
v -3.405902 1.368664 0.219914
v -3.405902 1.439314 0.255912
v -3.405902 1.495382 0.311980
v -3.405902 1.531380 0.382630
v -3.405902 1.543784 0.460946
v -3.405902 1.531380 0.539261
v -3.405902 1.495382 0.609911
v -3.405902 1.439314 0.665979
v -3.405902 1.368664 0.701977
v -3.405902 1.290348 0.714381
v -3.405902 1.212032 0.701977
v -3.405902 1.141382 0.665979
v -3.405902 1.085315 0.609911
v -3.405902 1.049317 0.539262
v -3.405902 1.036913 0.460946
v -3.405902 1.049317 0.382630
v -3.405902 1.085315 0.311980
v -3.405902 1.141382 0.255912
v -3.405902 1.212032 0.219914
v -3.927646 1.539026 0.861674
v -3.927646 1.468376 0.897672
v -4.365900 1.539026 0.861674
v -4.365900 1.468376 0.897672
v -3.927646 1.468376 0.024219
v -3.927646 1.539026 0.060217
v -4.365900 1.468376 0.024219
v -4.365900 1.539026 0.060217
v -3.927646 1.131651 0.859734
v -3.927646 1.061001 0.823736
v -4.365900 1.131651 0.859734
v -4.365900 1.061001 0.823736
v -3.927646 1.061001 0.098155
v -3.927646 1.131651 0.062157
v -4.365900 1.061001 0.098155
v -4.365900 1.131651 0.062157
vt 0.565944 0.326030
vt 0.556096 0.306701
vt 0.540756 0.291361
vt 0.521427 0.281512
vt 0.500000 0.278119
vt 0.478573 0.281512
vt 0.459244 0.291361
vt 0.443904 0.306701
vt 0.434056 0.326030
vt 0.430662 0.347457
vt 0.434056 0.368883
vt 0.443904 0.388212
vt 0.459244 0.403552
vt 0.478573 0.413401
vt 0.500000 0.416794
vt 0.521427 0.413401
vt 0.540756 0.403552
vt 0.556096 0.388212
vt 0.565944 0.368883
vt 0.569338 0.347457
vt 0.444530 0.416794
vt 0.450077 0.416794
vt 0.455624 0.416794
vt 0.461171 0.416794
vt 0.466718 0.416794
vt 0.472265 0.416794
vt 0.477812 0.416794
vt 0.483359 0.416794
vt 0.488906 0.416794
vt 0.494453 0.416794
vt 0.500000 0.416794
vt 0.505547 0.416794
vt 0.511094 0.416794
vt 0.516641 0.416794
vt 0.522188 0.416794
vt 0.527735 0.416794
vt 0.533282 0.416794
vt 0.538829 0.416794
vt 0.544376 0.416794
vt 0.549923 0.416794
vt 0.555470 0.416794
vt 0.444530 0.583623
vt 0.450077 0.583623
vt 0.455624 0.583623
vt 0.461171 0.583623
vt 0.466718 0.583623
vt 0.472265 0.583623
vt 0.477812 0.583623
vt 0.483359 0.583623
vt 0.488906 0.583623
vt 0.494453 0.583623
vt 0.500000 0.583623
vt 0.505547 0.583623
vt 0.511094 0.583623
vt 0.516641 0.583623
vt 0.522188 0.583623
vt 0.527735 0.583623
vt 0.533282 0.583623
vt 0.538829 0.583623
vt 0.544376 0.583623
vt 0.549923 0.583623
vt 0.555470 0.583623
vt 0.565944 0.631117
vt 0.556096 0.611788
vt 0.540756 0.596448
vt 0.521427 0.586599
vt 0.500000 0.583205
vt 0.478573 0.586599
vt 0.459244 0.596448
vt 0.443904 0.611788
vt 0.434056 0.631117
vt 0.430662 0.652543
vt 0.434056 0.673970
vt 0.443904 0.693299
vt 0.459244 0.708639
vt 0.478573 0.718488
vt 0.500000 0.721881
vt 0.521427 0.718488
vt 0.540756 0.708639
vt 0.556096 0.693299
vt 0.565944 0.673970
vt 0.569338 0.652543
vt 0.500000 0.344683
vt 0.500000 0.649770
vt 0.556096 0.306701
vt 0.565944 0.326030
vt 0.540756 0.291361
vt 0.521427 0.281512
vt 0.500000 0.278119
vt 0.478573 0.281512
vt 0.459244 0.291361
vt 0.443904 0.306701
vt 0.434056 0.326030
vt 0.430662 0.347457
vt 0.434056 0.368883
vt 0.443904 0.388212
vt 0.459244 0.403552
vt 0.478573 0.413401
vt 0.500000 0.416794
vt 0.521427 0.413401
vt 0.540756 0.403552
vt 0.556096 0.388212
vt 0.565944 0.368883
vt 0.569338 0.347457
vt 0.556096 0.306701
vt 0.565944 0.326030
vt 0.540756 0.291361
vt 0.521427 0.281512
vt 0.500000 0.278119
vt 0.478573 0.281512
vt 0.459244 0.291361
vt 0.443904 0.306701
vt 0.434056 0.326030
vt 0.430662 0.347457
vt 0.434056 0.368883
vt 0.443904 0.388212
vt 0.459244 0.403552
vt 0.478573 0.413401
vt 0.500000 0.416794
vt 0.521427 0.413401
vt 0.540756 0.403552
vt 0.556096 0.388212
vt 0.565944 0.368883
vt 0.569338 0.347457
vt 0.533282 0.561889
vt 0.527735 0.561889
vt 0.522188 0.561889
vt 0.516641 0.561889
vt 0.511094 0.561889
vt 0.505547 0.561889
vt 0.500000 0.561889
vt 0.494453 0.561889
vt 0.488906 0.561889
vt 0.483359 0.561889
vt 0.477812 0.561889
vt 0.472265 0.561889
vt 0.466718 0.561889
vt 0.461171 0.561889
vt 0.455624 0.561889
vt 0.450077 0.561889
vt 0.555470 0.561889
vt 0.444530 0.561889
vt 0.549923 0.561889
vt 0.544376 0.561889
vt 0.538829 0.561889
vt 0.466718 0.536016
vt 0.461171 0.536016
vt 0.455624 0.536016
vt 0.450077 0.536016
vt 0.555470 0.536016
vt 0.444530 0.536016
vt 0.549923 0.536016
vt 0.544376 0.536016
vt 0.538829 0.536016
vt 0.533282 0.536016
vt 0.527735 0.536016
vt 0.522188 0.536016
vt 0.516641 0.536016
vt 0.511094 0.536016
vt 0.505547 0.536016
vt 0.500000 0.536016
vt 0.494453 0.536016
vt 0.488906 0.536016
vt 0.483359 0.536016
vt 0.477812 0.536016
vt 0.472265 0.536016
vt 0.527735 0.561889
vt 0.533282 0.561889
vt 0.533282 0.583623
vt 0.527735 0.583623
vt 0.455624 0.561889
vt 0.461171 0.561889
vt 0.461171 0.583623
vt 0.455624 0.583623
vt 0.511094 0.561889
vt 0.516641 0.561889
vt 0.516641 0.583623
vt 0.511094 0.583623
vt 0.472265 0.561889
vt 0.477812 0.561889
vt 0.477812 0.583623
vt 0.472265 0.583623
vn 0.036618 0.950418 -0.308811
vn 0.036618 0.808476 -0.587389
vn 0.000000 0.809019 -0.587783
vn 0.000000 0.951056 -0.309018
vn 0.036618 0.587392 -0.808474
vn 0.000000 0.587786 -0.809017
vn 0.036618 0.308809 -0.950419
vn 0.000000 0.309016 -0.951057
vn 0.036618 -0.000000 -0.999329
vn 0.000000 -0.000000 -1.000000
vn 0.036618 -0.308809 -0.950419
vn 0.000000 -0.309016 -0.951057
vn 0.036618 -0.587391 -0.808474
vn 0.000000 -0.587786 -0.809017
vn 0.036618 -0.808476 -0.587389
vn 0.000000 -0.809018 -0.587784
vn 0.036618 -0.950419 -0.308810
vn 0.000000 -0.951057 -0.309017
vn 0.036618 -0.999329 0.000000
vn 0.000000 -1.000000 -0.000000
vn 0.036618 -0.950419 0.308810
vn 0.000000 -0.951057 0.309017
vn 0.036618 -0.808475 0.587390
vn 0.000000 -0.809018 0.587784
vn 0.036618 -0.587392 0.808474
vn 0.000000 -0.587786 0.809017
vn 0.036618 -0.308809 0.950419
vn 0.000000 -0.309016 0.951057
vn 0.036618 0.000000 0.999329
vn 0.000000 0.000000 1.000000
vn 0.036618 0.308810 0.950419
vn 0.000000 0.309017 0.951057
vn 0.036618 0.587391 0.808474
vn 0.000000 0.587786 0.809017
vn 0.036618 0.808475 0.587390
vn 0.000000 0.809018 0.587784
vn 0.036618 0.950418 0.308811
vn 0.000000 0.951056 0.309018
vn 0.036618 0.999329 -0.000000
vn 0.000000 1.000000 0.000000
vn 1.000000 -0.000001 0.000000
vn 1.000000 -0.000001 0.000000
vn 1.000000 -0.000000 0.000000
vn 1.000000 0.000001 0.000000
vn 1.000000 -0.000000 0.000000
vn 1.000000 0.000000 0.000000
vn 1.000000 0.000000 0.000000
vn 1.000000 -0.000001 0.000000
vn 1.000000 0.000000 0.000000
vn 1.000000 0.000000 0.000000
vn 1.000000 -0.000000 0.000000
vn 1.000000 -0.000001 0.000000
vn 1.000000 -0.000002 0.000000
vn 1.000000 -0.000001 0.000000
vn 1.000000 0.000001 0.000000
vn 1.000000 0.000000 0.000000
vn 1.000000 -0.000001 0.000000
vn 1.000000 0.000000 0.000000
vn 1.000000 -0.000000 0.000000
vn 1.000000 -0.000000 0.000000
vn 1.000000 0.000000 0.000000
vn -1.000000 -0.000002 0.000000
vn -1.000000 0.000002 0.000000
vn -1.000000 -0.000001 0.000000
vn -1.000000 -0.000000 0.000000
vn -1.000000 -0.000002 0.000000
vn -1.000000 0.000000 0.000000
vn -1.000000 -0.000003 0.000000
vn -1.000000 -0.000003 0.000000
vn -1.000000 0.000000 0.000000
vn -1.000000 0.000000 0.000000
vn -1.000000 0.000000 0.000000
vn -1.000000 0.000000 0.000000
vn -1.000000 0.000000 0.000000
vn -1.000000 0.000000 0.000000
vn -1.000000 0.000000 0.000000
vn -1.000000 0.000000 0.000000
vn -1.000000 -0.000002 0.000000
vn -1.000000 -0.000002 0.000000
vn -1.000000 0.000000 0.000000
vn -1.000000 0.000000 0.000000
vn -1.000000 0.000000 0.000000
vn 0.254259 0.919801 -0.298863
vn 0.254259 0.782431 -0.568467
vn 0.254259 0.568469 -0.782429
vn 0.254259 0.298861 -0.919801
vn 0.254259 -0.000000 -0.967136
vn 0.254259 -0.298861 -0.919801
vn 0.254259 -0.568468 -0.782430
vn 0.254259 -0.782431 -0.568467
vn 0.254259 -0.919802 -0.298859
vn 0.254259 -0.967136 0.000000
vn 0.254259 -0.919801 0.298862
vn 0.254259 -0.782430 0.568467
vn 0.254259 -0.568469 0.782429
vn 0.254259 -0.298861 0.919801
vn 0.254259 0.000001 0.967136
vn 0.254259 0.298862 0.919801
vn 0.254259 0.568469 0.782430
vn 0.254259 0.782430 0.568468
vn 0.254259 0.919801 0.298862
vn 0.254259 0.967136 -0.000001
vn 0.326384 0.898975 -0.292092
vn 0.326383 0.764713 -0.555596
vn 0.326383 0.555596 -0.764714
vn 0.326383 0.292095 -0.898974
vn 0.326384 0.000000 -0.945237
vn 0.326383 -0.292095 -0.898974
vn 0.326384 -0.555594 -0.764715
vn 0.326385 -0.764712 -0.555597
vn 0.326384 -0.898977 -0.292087
vn 0.326383 -0.945238 0.000002
vn 0.326384 -0.898975 0.292091
vn 0.326384 -0.764715 0.555594
vn 0.326383 -0.555597 0.764713
vn 0.326383 -0.292095 0.898974
vn 0.326383 0.000001 0.945238
vn 0.326382 0.292096 0.898974
vn 0.326383 0.555598 0.764713
vn 0.326383 0.764714 0.555595
vn 0.326385 0.898975 0.292092
vn 0.326385 0.945237 -0.000002
vn 0.000000 0.453991 0.891007
vn 0.000000 0.453991 0.891007
vn 0.000000 0.453991 0.891007
vn 0.000000 0.453991 0.891007
vn 0.000000 0.000000 1.000000
vn 0.000000 0.264175 0.964475
vn 0.000000 0.156435 0.987688
vn 0.000000 0.000000 1.000000
vn 0.000000 -0.264174 0.964475
vn 0.000000 -0.156434 0.987688
vn 0.000000 -0.453991 0.891007
vn 0.000000 -0.453991 0.891007
vn 0.000000 -0.453991 0.891007
vn 0.000000 -0.453991 0.891007
vn 0.000000 -0.809018 0.587784
vn 0.000000 -0.624999 0.780625
vn 0.000000 -0.707108 0.707106
vn 0.000000 -0.809018 0.587784
vn 0.000000 -0.951056 0.309017
vn 0.000000 -0.951056 0.309018
vn 0.000000 -1.000000 -0.000000
vn 0.000000 -1.000000 -0.000000
vn 0.000000 -0.951056 -0.309017
vn 0.000000 -0.951056 -0.309018
vn 0.000000 -0.809018 -0.587783
vn 0.000000 -0.809018 -0.587783
vn 0.000000 -0.624999 -0.780625
vn 0.000000 -0.707108 -0.707105
vn 0.000000 -0.453990 -0.891007
vn 0.000000 -0.453990 -0.891007
vn 0.000000 -0.453990 -0.891007
vn 0.000000 -0.453990 -0.891007
vn 0.000000 -0.000000 -1.000000
vn 0.000000 -0.264174 -0.964475
vn 0.000000 -0.156434 -0.987688
vn 0.000000 -0.000000 -1.000000
vn 0.000000 0.264174 -0.964475
vn 0.000000 0.156434 -0.987688
vn 0.000000 0.453990 -0.891007
vn 0.000000 0.453990 -0.891007
vn 0.000000 0.453990 -0.891007
vn 0.000000 0.453990 -0.891007
vn 0.000000 0.809019 -0.587783
vn 0.000000 0.625000 -0.780625
vn 0.000000 0.707109 -0.707104
vn 0.000000 0.809018 -0.587783
vn 0.000000 0.951056 -0.309018
vn 0.000000 0.951056 -0.309018
vn 0.000000 1.000000 0.000000
vn 0.000000 1.000000 0.000000
vn 0.000000 0.951056 0.309019
vn 0.000000 0.951056 0.309018
vn 0.000000 0.809018 0.587784
vn 0.000000 0.809018 0.587784
vn 0.000000 0.624999 0.780625
vn 0.000000 0.707108 0.707106
vn 1.000000 -0.000003 0.000000
vn 1.000000 -0.000003 0.000000
vn 1.000000 -0.000003 0.000000
vn 1.000000 -0.000003 0.000000
vn 0.000000 0.891007 -0.453990
vn 0.000000 0.891007 -0.453990
vn 0.000000 0.891007 -0.453990
vn 0.000000 0.891007 -0.453990
vn -1.000000 -0.000003 0.000000
vn -1.000000 -0.000003 0.000000
vn 0.000000 -0.891007 0.453990
vn 0.000000 -0.891007 0.453990
vn 0.000000 -0.891007 0.453990
vn 0.000000 -0.891007 0.453990
vn 1.000000 -0.000003 0.000000
vn 1.000000 -0.000003 0.000000
vn 1.000000 -0.000003 0.000000
vn 1.000000 -0.000003 0.000000
vn 0.000000 -0.891007 -0.453990
vn 0.000000 -0.891007 -0.453990
vn 0.000000 -0.891007 -0.453990
vn 0.000000 -0.891007 -0.453990
vn -1.000000 0.000000 0.000000
vn -1.000000 0.000000 0.000000
vn 0.000000 0.891007 0.453990
vn 0.000000 0.891007 0.453990
vn 0.000000 0.891007 0.453990
vn 0.000000 0.891007 0.453990
vn 1.000000 0.000000 0.000000
vn 1.000000 0.000000 0.000000
vn 1.000000 0.000000 0.000000
vn 1.000000 0.000000 0.000000
vn 0.000000 0.891007 0.453990
vn 0.000000 0.891007 0.453990
vn 0.000000 0.891007 0.453990
vn 0.000000 0.891007 0.453990
vn -1.000000 0.000000 0.000000
vn -1.000000 0.000000 0.000000
vn 0.000000 -0.891007 -0.453990
vn 0.000000 -0.891007 -0.453990
vn 0.000000 -0.891007 -0.453990
vn 0.000000 -0.891007 -0.453990
vn 1.000000 0.000000 0.000000
vn 1.000000 0.000000 0.000000
vn 1.000000 0.000000 0.000000
vn 1.000000 0.000000 0.000000
vn 0.000000 -0.891007 0.453990
vn 0.000000 -0.891007 0.453990
vn 0.000000 -0.891007 0.453990
vn 0.000000 -0.891007 0.453990
vn -1.000000 0.000000 0.000000
vn -1.000000 0.000000 0.000000
vn 0.000000 0.891007 -0.453990
vn 0.000000 0.891007 -0.453990
vn 0.000000 0.891007 -0.453990
vn 0.000000 0.891007 -0.453990
s 1
g pCylinder1
usemtl lambert2SG
f 1/21/1 2/22/2 106/149/3 107/151/4
f 2/22/2 3/23/5 105/148/6 106/149/3
f 3/23/5 4/24/7 104/147/8 105/148/6
f 4/24/7 5/25/9 103/146/10 104/147/8
f 5/25/9 6/26/11 122/166/12 103/146/10
f 6/26/11 7/27/13 121/165/14 122/166/12
f 7/27/13 8/28/15 120/164/16 121/165/14
f 8/28/15 9/29/17 119/163/18 120/164/16
f 9/29/17 10/30/19 118/162/20 119/163/18
f 10/30/19 11/31/21 117/161/22 118/162/20
f 11/31/21 12/32/23 116/160/24 117/161/22
f 12/32/23 13/33/25 115/159/26 116/160/24
f 13/33/25 14/34/27 114/158/28 115/159/26
f 14/34/27 15/35/29 113/157/30 114/158/28
f 15/35/29 16/36/31 112/156/32 113/157/30
f 16/36/31 17/37/33 111/155/34 112/156/32
f 17/37/33 18/38/35 110/154/36 111/155/34
f 18/38/35 19/39/37 109/153/38 110/154/36
f 19/39/37 20/40/39 108/152/40 109/153/38
f 20/40/39 1/41/1 107/150/4 108/152/40
s 2
f 63/105/41 62/106/42 64/83/43
f 65/107/44 63/105/41 64/83/43
f 66/108/45 65/107/44 64/83/43
f 67/109/46 66/108/45 64/83/43
f 68/110/47 67/109/46 64/83/43
f 69/111/48 68/110/47 64/83/43
f 70/112/49 69/111/48 64/83/43
f 71/113/50 70/112/49 64/83/43
f 72/114/51 71/113/50 64/83/43
f 73/115/52 72/114/51 64/83/43
f 74/116/53 73/115/52 64/83/43
f 75/117/54 74/116/53 64/83/43
f 76/118/55 75/117/54 64/83/43
f 77/119/56 76/118/55 64/83/43
f 78/120/57 77/119/56 64/83/43
f 79/121/58 78/120/57 64/83/43
f 80/122/59 79/121/58 64/83/43
f 81/123/60 80/122/59 64/83/43
f 82/124/61 81/123/60 64/83/43
f 62/106/42 82/124/61 64/83/43
s 3
f 21/81/62 22/80/63 41/84/64
f 22/80/63 23/79/65 41/84/64
f 23/79/65 24/78/66 41/84/64
f 24/78/66 25/77/67 41/84/64
f 25/77/67 26/76/68 41/84/64
f 26/76/68 27/75/69 41/84/64
f 27/75/69 28/74/70 41/84/64
f 28/74/70 29/73/71 41/84/64
f 29/73/71 30/72/72 41/84/64
f 30/72/72 31/71/73 41/84/64
f 31/71/73 32/70/74 41/84/64
f 32/70/74 33/69/75 41/84/64
f 33/69/75 34/68/76 41/84/64
f 34/68/76 35/67/77 41/84/64
f 35/67/77 36/66/78 41/84/64
f 36/66/78 37/65/79 41/84/64
f 37/65/79 38/64/80 41/84/64
f 38/64/80 39/63/81 41/84/64
f 39/63/81 40/82/82 41/84/64
f 40/82/82 21/81/62 41/84/64
s 1
f 2/2/2 1/1/1 42/86/83 43/85/84
f 3/3/5 2/2/2 43/85/84 44/87/85
f 4/4/7 3/3/5 44/87/85 45/88/86
f 5/5/9 4/4/7 45/88/86 46/89/87
f 6/6/11 5/5/9 46/89/87 47/90/88
f 7/7/13 6/6/11 47/90/88 48/91/89
f 8/8/15 7/7/13 48/91/89 49/92/90
f 9/9/17 8/8/15 49/92/90 50/93/91
f 10/10/19 9/9/17 50/93/91 51/94/92
f 11/11/21 10/10/19 51/94/92 52/95/93
f 12/12/23 11/11/21 52/95/93 53/96/94
f 13/13/25 12/12/23 53/96/94 54/97/95
f 14/14/27 13/13/25 54/97/95 55/98/96
f 15/15/29 14/14/27 55/98/96 56/99/97
f 16/16/31 15/15/29 56/99/97 57/100/98
f 17/17/33 16/16/31 57/100/98 58/101/99
f 18/18/35 17/17/33 58/101/99 59/102/100
f 19/19/37 18/18/35 59/102/100 60/103/101
f 20/20/39 19/19/37 60/103/101 61/104/102
f 1/1/1 20/20/39 61/104/102 42/86/83
f 43/85/84 42/86/83 62/106/103 63/105/104
f 44/87/85 43/85/84 63/105/104 65/107/105
f 45/88/86 44/87/85 65/107/105 66/108/106
f 46/89/87 45/88/86 66/108/106 67/109/107
f 47/90/88 46/89/87 67/109/107 68/110/108
f 48/91/89 47/90/88 68/110/108 69/111/109
f 49/92/90 48/91/89 69/111/109 70/112/110
f 50/93/91 49/92/90 70/112/110 71/113/111
f 51/94/92 50/93/91 71/113/111 72/114/112
f 52/95/93 51/94/92 72/114/112 73/115/113
f 53/96/94 52/95/93 73/115/113 74/116/114
f 54/97/95 53/96/94 74/116/114 75/117/115
f 55/98/96 54/97/95 75/117/115 76/118/116
f 56/99/97 55/98/96 76/118/116 77/119/117
f 57/100/98 56/99/97 77/119/117 78/120/118
f 58/101/99 57/100/98 78/120/118 79/121/119
f 59/102/100 58/101/99 79/121/119 80/122/120
f 60/103/101 59/102/100 80/122/120 81/123/121
f 61/104/102 60/103/101 81/123/121 82/124/122
f 42/86/83 61/104/102 82/124/122 62/106/103
s off
f 124/167/123 123/168/124 125/169/125 126/170/126
s 1
f 85/127/127 84/126/128 36/57/129 35/56/130
f 86/128/131 85/127/127 35/56/130 34/55/132
s off
f 132/175/133 131/176/134 133/177/135 134/178/136
s 1
f 88/130/137 87/129/138 33/54/139 32/53/140
f 89/131/141 88/130/137 32/53/140 31/52/142
f 90/132/143 89/131/141 31/52/142 30/51/144
f 91/133/145 90/132/143 30/51/144 29/50/146
f 92/134/147 91/133/145 29/50/146 28/49/148
f 93/135/149 92/134/147 28/49/148 27/48/150
s off
f 136/179/151 135/180/152 137/181/153 138/182/154
s 1
f 95/137/155 94/136/156 26/47/157 25/46/158
f 96/138/159 95/137/155 25/46/158 24/45/160
s off
f 128/171/161 127/172/162 129/173/163 130/174/164
s 1
f 98/140/165 97/139/166 23/44/167 22/43/168
f 99/142/169 98/140/165 22/43/168 21/42/170
f 100/143/171 99/141/169 21/62/170 40/61/172
f 101/144/173 100/143/171 40/61/172 39/60/174
f 102/145/175 101/144/173 39/60/174 38/59/176
f 83/125/177 102/145/175 38/59/176 37/58/178
f 104/147/8 103/146/10 95/137/155 96/138/159
f 105/148/6 104/147/8 96/138/159 97/139/166
f 106/149/3 105/148/6 97/139/166 98/140/165
f 107/151/4 106/149/3 98/140/165 99/142/169
f 108/152/40 107/150/4 99/141/169 100/143/171
f 109/153/38 108/152/40 100/143/171 101/144/173
f 110/154/36 109/153/38 101/144/173 102/145/175
f 111/155/34 110/154/36 102/145/175 83/125/177
f 112/156/32 111/155/34 83/125/177 84/126/128
f 113/157/30 112/156/32 84/126/128 85/127/127
f 114/158/28 113/157/30 85/127/127 86/128/131
f 115/159/26 114/158/28 86/128/131 87/129/138
f 116/160/24 115/159/26 87/129/138 88/130/137
f 117/161/22 116/160/24 88/130/137 89/131/141
f 118/162/20 117/161/22 89/131/141 90/132/143
f 119/163/18 118/162/20 90/132/143 91/133/145
f 120/164/16 119/163/18 91/133/145 92/134/147
f 121/165/14 120/164/16 92/134/147 93/135/149
f 122/166/12 121/165/14 93/135/149 94/136/156
f 103/146/10 122/166/12 94/136/156 95/137/155
s off
f 84/126/179 83/125/180 123/168/181 124/167/182
f 83/125/183 37/58/184 125/169/185 123/168/186
s 3
f 37/58/79 36/57/78 126/170/187 125/169/188
s off
f 36/57/189 84/126/190 124/167/191 126/170/192
f 97/139/193 96/138/194 127/172/195 128/171/196
f 96/138/197 24/45/198 129/173/199 127/172/200
s 3
f 24/45/66 23/44/65 130/174/201 129/173/202
s off
f 23/44/203 97/139/204 128/171/205 130/174/206
f 87/129/207 86/128/208 131/176/209 132/175/210
f 86/128/211 34/55/212 133/177/213 131/176/214
s 3
f 34/55/76 33/54/75 134/178/215 133/177/216
s off
f 33/54/217 87/129/218 132/175/219 134/178/220
f 94/136/221 93/135/222 135/180/223 136/179/224
f 93/135/225 27/48/226 137/181/227 135/180/228
s 3
f 27/48/69 26/47/68 138/182/229 137/181/230
s off
f 26/47/231 94/136/232 136/179/233 138/182/234
